M48
; DRILL file {KiCad 9.0.1} date 2025-05-22T16:31:12+0530
; FORMAT={-:-/ absolute / metric / decimal}
; #@! TF.CreationDate,2025-05-22T16:31:12+05:30
; #@! TF.GenerationSoftware,Kicad,Pcbnew,9.0.1
; #@! TF.FileFunction,Plated,1,2,PTH
FMAT,2
METRIC
; #@! TA.AperFunction,Plated,PTH,ViaDrill
T1C0.300
; #@! TA.AperFunction,Plated,PTH,ComponentDrill
T2C0.700
; #@! TA.AperFunction,Plated,PTH,ComponentDrill
T3C0.800
; #@! TA.AperFunction,Plated,PTH,ComponentDrill
T4C1.000
; #@! TA.AperFunction,Plated,PTH,ComponentDrill
T5C1.100
; #@! TA.AperFunction,Plated,PTH,ComponentDrill
T6C1.600
; #@! TA.AperFunction,Plated,PTH,ComponentDrill
T7C2.200
; #@! TA.AperFunction,Plated,PTH,ComponentDrill
T8C2.700
%
G90
G05
T1
X132.08Y-126.619
X132.08Y-127.889
X133.35Y-126.619
X133.35Y-127.889
X134.62Y-126.619
X134.62Y-127.889
X137.033Y-151.892
X137.033Y-153.162
X138.303Y-151.892
X138.303Y-153.162
X139.573Y-151.892
X139.573Y-153.162
X153.924Y-134.874
X153.924Y-136.144
X155.194Y-134.874
X155.194Y-136.144
X156.464Y-134.874
X156.464Y-136.144
X159.004Y-130.302
X163.195Y-115.443
X163.195Y-116.967
X165.227Y-115.443
X165.227Y-116.967
X168.783Y-130.429
X170.434Y-130.429
X172.212Y-130.429
X179.705Y-132.715
X179.705Y-133.985
X180.975Y-132.715
X180.975Y-133.985
X182.245Y-132.715
X182.245Y-133.985
X183.515Y-132.715
X183.515Y-133.985
X191.135Y-132.715
X191.135Y-133.985
X191.135Y-135.255
X192.405Y-132.715
X192.405Y-133.985
X192.405Y-135.255
X193.675Y-132.715
X193.675Y-133.985
X193.675Y-135.255
X194.945Y-132.715
X194.945Y-133.985
X194.945Y-135.255
T2
X133.6Y-137.439
X133.736Y-140.283
X133.736Y-143.433
X133.736Y-146.583
X133.736Y-149.733
X135.5Y-137.439
X135.636Y-140.283
X135.636Y-143.433
X135.636Y-146.583
X135.636Y-149.733
X151.495Y-131.572
X152.003Y-141.122
X152.003Y-144.272
X152.003Y-147.422
X153.395Y-131.572
X153.903Y-141.122
X153.903Y-144.272
X153.903Y-147.422
X155.813Y-98.806
X157.713Y-98.806
X174.122Y-132.588
X176.022Y-132.588
X180.345Y-144.145
X182.245Y-144.145
X185.785Y-132.715
X187.685Y-132.715
X197.49Y-132.588
X199.39Y-132.588
T3
X140.589Y-139.7
X140.589Y-142.24
X140.589Y-144.78
X140.589Y-147.32
X145.181Y-130.175
X145.201Y-133.35
X147.681Y-130.175
X147.701Y-133.35
X148.209Y-139.7
X148.209Y-142.24
X148.209Y-144.78
X148.209Y-147.32
X152.674Y-119.634
X152.674Y-124.333
X152.694Y-114.046
X155.174Y-119.634
X155.174Y-124.333
X155.194Y-114.046
X160.421Y-133.731
X162.921Y-133.731
X166.771Y-133.858
X169.271Y-133.858
X174.117Y-120.523
X174.117Y-123.063
X174.117Y-125.603
X174.117Y-128.143
X180.126Y-138.811
X181.737Y-120.523
X181.737Y-123.063
X181.737Y-125.603
X181.737Y-128.143
X182.626Y-138.811
X185.806Y-120.523
X185.806Y-123.063
X185.806Y-125.603
X185.806Y-128.143
X186.73Y-138.811
X189.23Y-138.811
X193.426Y-120.523
X193.426Y-123.063
X193.426Y-125.603
X193.426Y-128.143
X197.485Y-120.523
X197.485Y-123.063
X197.485Y-125.603
X197.485Y-128.143
X205.105Y-120.523
X205.105Y-123.063
X205.105Y-125.603
X205.105Y-128.143
T4
X163.703Y-97.155
X163.703Y-112.395
X166.243Y-97.155
X166.243Y-112.395
X168.783Y-97.155
X168.783Y-112.395
X171.323Y-97.155
X171.323Y-112.395
X173.863Y-97.155
X173.863Y-112.395
X176.403Y-97.155
X176.403Y-112.395
X178.943Y-97.155
X178.943Y-112.395
X181.483Y-97.155
X181.483Y-112.395
X184.023Y-97.155
X184.023Y-112.395
X186.563Y-97.155
X186.563Y-112.395
X189.103Y-97.155
X189.103Y-112.395
X191.643Y-97.155
X191.643Y-112.395
X194.183Y-97.155
X194.183Y-112.395
X196.723Y-97.155
X196.723Y-112.395
X199.263Y-97.155
X199.263Y-112.395
T5
X170.497Y-151.248
T6
X133.223Y-116.059
X133.223Y-122.809
X148.463Y-116.059
X148.463Y-122.809
T7
X164.497Y-145.248
T8
X173.647Y-142.748
X173.647Y-147.748
M30
