%TF.GenerationSoftware,KiCad,Pcbnew,9.0.1*%
%TF.CreationDate,2025-05-22T16:31:06+05:30*%
%TF.ProjectId,escDesign,65736344-6573-4696-976e-2e6b69636164,rev?*%
%TF.SameCoordinates,Original*%
%TF.FileFunction,Legend,Top*%
%TF.FilePolarity,Positive*%
%FSLAX46Y46*%
G04 Gerber Fmt 4.6, Leading zero omitted, Abs format (unit mm)*
G04 Created by KiCad (PCBNEW 9.0.1) date 2025-05-22 16:31:06*
%MOMM*%
%LPD*%
G01*
G04 APERTURE LIST*
%ADD10C,0.150000*%
%ADD11C,0.120000*%
G04 APERTURE END LIST*
D10*
X152786333Y-145956819D02*
X152453000Y-145480628D01*
X152214905Y-145956819D02*
X152214905Y-144956819D01*
X152214905Y-144956819D02*
X152595857Y-144956819D01*
X152595857Y-144956819D02*
X152691095Y-145004438D01*
X152691095Y-145004438D02*
X152738714Y-145052057D01*
X152738714Y-145052057D02*
X152786333Y-145147295D01*
X152786333Y-145147295D02*
X152786333Y-145290152D01*
X152786333Y-145290152D02*
X152738714Y-145385390D01*
X152738714Y-145385390D02*
X152691095Y-145433009D01*
X152691095Y-145433009D02*
X152595857Y-145480628D01*
X152595857Y-145480628D02*
X152214905Y-145480628D01*
X153262524Y-145956819D02*
X153453000Y-145956819D01*
X153453000Y-145956819D02*
X153548238Y-145909200D01*
X153548238Y-145909200D02*
X153595857Y-145861580D01*
X153595857Y-145861580D02*
X153691095Y-145718723D01*
X153691095Y-145718723D02*
X153738714Y-145528247D01*
X153738714Y-145528247D02*
X153738714Y-145147295D01*
X153738714Y-145147295D02*
X153691095Y-145052057D01*
X153691095Y-145052057D02*
X153643476Y-145004438D01*
X153643476Y-145004438D02*
X153548238Y-144956819D01*
X153548238Y-144956819D02*
X153357762Y-144956819D01*
X153357762Y-144956819D02*
X153262524Y-145004438D01*
X153262524Y-145004438D02*
X153214905Y-145052057D01*
X153214905Y-145052057D02*
X153167286Y-145147295D01*
X153167286Y-145147295D02*
X153167286Y-145385390D01*
X153167286Y-145385390D02*
X153214905Y-145480628D01*
X153214905Y-145480628D02*
X153262524Y-145528247D01*
X153262524Y-145528247D02*
X153357762Y-145575866D01*
X153357762Y-145575866D02*
X153548238Y-145575866D01*
X153548238Y-145575866D02*
X153643476Y-145528247D01*
X153643476Y-145528247D02*
X153691095Y-145480628D01*
X153691095Y-145480628D02*
X153738714Y-145385390D01*
X197752142Y-134820819D02*
X197418809Y-134344628D01*
X197180714Y-134820819D02*
X197180714Y-133820819D01*
X197180714Y-133820819D02*
X197561666Y-133820819D01*
X197561666Y-133820819D02*
X197656904Y-133868438D01*
X197656904Y-133868438D02*
X197704523Y-133916057D01*
X197704523Y-133916057D02*
X197752142Y-134011295D01*
X197752142Y-134011295D02*
X197752142Y-134154152D01*
X197752142Y-134154152D02*
X197704523Y-134249390D01*
X197704523Y-134249390D02*
X197656904Y-134297009D01*
X197656904Y-134297009D02*
X197561666Y-134344628D01*
X197561666Y-134344628D02*
X197180714Y-134344628D01*
X198704523Y-134820819D02*
X198133095Y-134820819D01*
X198418809Y-134820819D02*
X198418809Y-133820819D01*
X198418809Y-133820819D02*
X198323571Y-133963676D01*
X198323571Y-133963676D02*
X198228333Y-134058914D01*
X198228333Y-134058914D02*
X198133095Y-134106533D01*
X199323571Y-133820819D02*
X199418809Y-133820819D01*
X199418809Y-133820819D02*
X199514047Y-133868438D01*
X199514047Y-133868438D02*
X199561666Y-133916057D01*
X199561666Y-133916057D02*
X199609285Y-134011295D01*
X199609285Y-134011295D02*
X199656904Y-134201771D01*
X199656904Y-134201771D02*
X199656904Y-134439866D01*
X199656904Y-134439866D02*
X199609285Y-134630342D01*
X199609285Y-134630342D02*
X199561666Y-134725580D01*
X199561666Y-134725580D02*
X199514047Y-134773200D01*
X199514047Y-134773200D02*
X199418809Y-134820819D01*
X199418809Y-134820819D02*
X199323571Y-134820819D01*
X199323571Y-134820819D02*
X199228333Y-134773200D01*
X199228333Y-134773200D02*
X199180714Y-134725580D01*
X199180714Y-134725580D02*
X199133095Y-134630342D01*
X199133095Y-134630342D02*
X199085476Y-134439866D01*
X199085476Y-134439866D02*
X199085476Y-134201771D01*
X199085476Y-134201771D02*
X199133095Y-134011295D01*
X199133095Y-134011295D02*
X199180714Y-133916057D01*
X199180714Y-133916057D02*
X199228333Y-133868438D01*
X199228333Y-133868438D02*
X199323571Y-133820819D01*
X142855333Y-130534580D02*
X142807714Y-130582200D01*
X142807714Y-130582200D02*
X142664857Y-130629819D01*
X142664857Y-130629819D02*
X142569619Y-130629819D01*
X142569619Y-130629819D02*
X142426762Y-130582200D01*
X142426762Y-130582200D02*
X142331524Y-130486961D01*
X142331524Y-130486961D02*
X142283905Y-130391723D01*
X142283905Y-130391723D02*
X142236286Y-130201247D01*
X142236286Y-130201247D02*
X142236286Y-130058390D01*
X142236286Y-130058390D02*
X142283905Y-129867914D01*
X142283905Y-129867914D02*
X142331524Y-129772676D01*
X142331524Y-129772676D02*
X142426762Y-129677438D01*
X142426762Y-129677438D02*
X142569619Y-129629819D01*
X142569619Y-129629819D02*
X142664857Y-129629819D01*
X142664857Y-129629819D02*
X142807714Y-129677438D01*
X142807714Y-129677438D02*
X142855333Y-129725057D01*
X143188667Y-129629819D02*
X143807714Y-129629819D01*
X143807714Y-129629819D02*
X143474381Y-130010771D01*
X143474381Y-130010771D02*
X143617238Y-130010771D01*
X143617238Y-130010771D02*
X143712476Y-130058390D01*
X143712476Y-130058390D02*
X143760095Y-130106009D01*
X143760095Y-130106009D02*
X143807714Y-130201247D01*
X143807714Y-130201247D02*
X143807714Y-130439342D01*
X143807714Y-130439342D02*
X143760095Y-130534580D01*
X143760095Y-130534580D02*
X143712476Y-130582200D01*
X143712476Y-130582200D02*
X143617238Y-130629819D01*
X143617238Y-130629819D02*
X143331524Y-130629819D01*
X143331524Y-130629819D02*
X143236286Y-130582200D01*
X143236286Y-130582200D02*
X143188667Y-130534580D01*
X161504333Y-136376580D02*
X161456714Y-136424200D01*
X161456714Y-136424200D02*
X161313857Y-136471819D01*
X161313857Y-136471819D02*
X161218619Y-136471819D01*
X161218619Y-136471819D02*
X161075762Y-136424200D01*
X161075762Y-136424200D02*
X160980524Y-136328961D01*
X160980524Y-136328961D02*
X160932905Y-136233723D01*
X160932905Y-136233723D02*
X160885286Y-136043247D01*
X160885286Y-136043247D02*
X160885286Y-135900390D01*
X160885286Y-135900390D02*
X160932905Y-135709914D01*
X160932905Y-135709914D02*
X160980524Y-135614676D01*
X160980524Y-135614676D02*
X161075762Y-135519438D01*
X161075762Y-135519438D02*
X161218619Y-135471819D01*
X161218619Y-135471819D02*
X161313857Y-135471819D01*
X161313857Y-135471819D02*
X161456714Y-135519438D01*
X161456714Y-135519438D02*
X161504333Y-135567057D01*
X162456714Y-136471819D02*
X161885286Y-136471819D01*
X162171000Y-136471819D02*
X162171000Y-135471819D01*
X162171000Y-135471819D02*
X162075762Y-135614676D01*
X162075762Y-135614676D02*
X161980524Y-135709914D01*
X161980524Y-135709914D02*
X161885286Y-135757533D01*
X143160905Y-135299819D02*
X143160905Y-136109342D01*
X143160905Y-136109342D02*
X143208524Y-136204580D01*
X143208524Y-136204580D02*
X143256143Y-136252200D01*
X143256143Y-136252200D02*
X143351381Y-136299819D01*
X143351381Y-136299819D02*
X143541857Y-136299819D01*
X143541857Y-136299819D02*
X143637095Y-136252200D01*
X143637095Y-136252200D02*
X143684714Y-136204580D01*
X143684714Y-136204580D02*
X143732333Y-136109342D01*
X143732333Y-136109342D02*
X143732333Y-135299819D01*
X144732333Y-136299819D02*
X144160905Y-136299819D01*
X144446619Y-136299819D02*
X144446619Y-135299819D01*
X144446619Y-135299819D02*
X144351381Y-135442676D01*
X144351381Y-135442676D02*
X144256143Y-135537914D01*
X144256143Y-135537914D02*
X144160905Y-135585533D01*
X145351381Y-135299819D02*
X145446619Y-135299819D01*
X145446619Y-135299819D02*
X145541857Y-135347438D01*
X145541857Y-135347438D02*
X145589476Y-135395057D01*
X145589476Y-135395057D02*
X145637095Y-135490295D01*
X145637095Y-135490295D02*
X145684714Y-135680771D01*
X145684714Y-135680771D02*
X145684714Y-135918866D01*
X145684714Y-135918866D02*
X145637095Y-136109342D01*
X145637095Y-136109342D02*
X145589476Y-136204580D01*
X145589476Y-136204580D02*
X145541857Y-136252200D01*
X145541857Y-136252200D02*
X145446619Y-136299819D01*
X145446619Y-136299819D02*
X145351381Y-136299819D01*
X145351381Y-136299819D02*
X145256143Y-136252200D01*
X145256143Y-136252200D02*
X145208524Y-136204580D01*
X145208524Y-136204580D02*
X145160905Y-136109342D01*
X145160905Y-136109342D02*
X145113286Y-135918866D01*
X145113286Y-135918866D02*
X145113286Y-135680771D01*
X145113286Y-135680771D02*
X145160905Y-135490295D01*
X145160905Y-135490295D02*
X145208524Y-135395057D01*
X145208524Y-135395057D02*
X145256143Y-135347438D01*
X145256143Y-135347438D02*
X145351381Y-135299819D01*
X152786333Y-139656819D02*
X152453000Y-139180628D01*
X152214905Y-139656819D02*
X152214905Y-138656819D01*
X152214905Y-138656819D02*
X152595857Y-138656819D01*
X152595857Y-138656819D02*
X152691095Y-138704438D01*
X152691095Y-138704438D02*
X152738714Y-138752057D01*
X152738714Y-138752057D02*
X152786333Y-138847295D01*
X152786333Y-138847295D02*
X152786333Y-138990152D01*
X152786333Y-138990152D02*
X152738714Y-139085390D01*
X152738714Y-139085390D02*
X152691095Y-139133009D01*
X152691095Y-139133009D02*
X152595857Y-139180628D01*
X152595857Y-139180628D02*
X152214905Y-139180628D01*
X153119667Y-138656819D02*
X153786333Y-138656819D01*
X153786333Y-138656819D02*
X153357762Y-139656819D01*
X167854333Y-136503580D02*
X167806714Y-136551200D01*
X167806714Y-136551200D02*
X167663857Y-136598819D01*
X167663857Y-136598819D02*
X167568619Y-136598819D01*
X167568619Y-136598819D02*
X167425762Y-136551200D01*
X167425762Y-136551200D02*
X167330524Y-136455961D01*
X167330524Y-136455961D02*
X167282905Y-136360723D01*
X167282905Y-136360723D02*
X167235286Y-136170247D01*
X167235286Y-136170247D02*
X167235286Y-136027390D01*
X167235286Y-136027390D02*
X167282905Y-135836914D01*
X167282905Y-135836914D02*
X167330524Y-135741676D01*
X167330524Y-135741676D02*
X167425762Y-135646438D01*
X167425762Y-135646438D02*
X167568619Y-135598819D01*
X167568619Y-135598819D02*
X167663857Y-135598819D01*
X167663857Y-135598819D02*
X167806714Y-135646438D01*
X167806714Y-135646438D02*
X167854333Y-135694057D01*
X168187667Y-135598819D02*
X168854333Y-135598819D01*
X168854333Y-135598819D02*
X168425762Y-136598819D01*
X177546095Y-131407819D02*
X177546095Y-132217342D01*
X177546095Y-132217342D02*
X177593714Y-132312580D01*
X177593714Y-132312580D02*
X177641333Y-132360200D01*
X177641333Y-132360200D02*
X177736571Y-132407819D01*
X177736571Y-132407819D02*
X177927047Y-132407819D01*
X177927047Y-132407819D02*
X178022285Y-132360200D01*
X178022285Y-132360200D02*
X178069904Y-132312580D01*
X178069904Y-132312580D02*
X178117523Y-132217342D01*
X178117523Y-132217342D02*
X178117523Y-131407819D01*
X178736571Y-131836390D02*
X178641333Y-131788771D01*
X178641333Y-131788771D02*
X178593714Y-131741152D01*
X178593714Y-131741152D02*
X178546095Y-131645914D01*
X178546095Y-131645914D02*
X178546095Y-131598295D01*
X178546095Y-131598295D02*
X178593714Y-131503057D01*
X178593714Y-131503057D02*
X178641333Y-131455438D01*
X178641333Y-131455438D02*
X178736571Y-131407819D01*
X178736571Y-131407819D02*
X178927047Y-131407819D01*
X178927047Y-131407819D02*
X179022285Y-131455438D01*
X179022285Y-131455438D02*
X179069904Y-131503057D01*
X179069904Y-131503057D02*
X179117523Y-131598295D01*
X179117523Y-131598295D02*
X179117523Y-131645914D01*
X179117523Y-131645914D02*
X179069904Y-131741152D01*
X179069904Y-131741152D02*
X179022285Y-131788771D01*
X179022285Y-131788771D02*
X178927047Y-131836390D01*
X178927047Y-131836390D02*
X178736571Y-131836390D01*
X178736571Y-131836390D02*
X178641333Y-131884009D01*
X178641333Y-131884009D02*
X178593714Y-131931628D01*
X178593714Y-131931628D02*
X178546095Y-132026866D01*
X178546095Y-132026866D02*
X178546095Y-132217342D01*
X178546095Y-132217342D02*
X178593714Y-132312580D01*
X178593714Y-132312580D02*
X178641333Y-132360200D01*
X178641333Y-132360200D02*
X178736571Y-132407819D01*
X178736571Y-132407819D02*
X178927047Y-132407819D01*
X178927047Y-132407819D02*
X179022285Y-132360200D01*
X179022285Y-132360200D02*
X179069904Y-132312580D01*
X179069904Y-132312580D02*
X179117523Y-132217342D01*
X179117523Y-132217342D02*
X179117523Y-132026866D01*
X179117523Y-132026866D02*
X179069904Y-131931628D01*
X179069904Y-131931628D02*
X179022285Y-131884009D01*
X179022285Y-131884009D02*
X178927047Y-131836390D01*
X181209333Y-136670580D02*
X181161714Y-136718200D01*
X181161714Y-136718200D02*
X181018857Y-136765819D01*
X181018857Y-136765819D02*
X180923619Y-136765819D01*
X180923619Y-136765819D02*
X180780762Y-136718200D01*
X180780762Y-136718200D02*
X180685524Y-136622961D01*
X180685524Y-136622961D02*
X180637905Y-136527723D01*
X180637905Y-136527723D02*
X180590286Y-136337247D01*
X180590286Y-136337247D02*
X180590286Y-136194390D01*
X180590286Y-136194390D02*
X180637905Y-136003914D01*
X180637905Y-136003914D02*
X180685524Y-135908676D01*
X180685524Y-135908676D02*
X180780762Y-135813438D01*
X180780762Y-135813438D02*
X180923619Y-135765819D01*
X180923619Y-135765819D02*
X181018857Y-135765819D01*
X181018857Y-135765819D02*
X181161714Y-135813438D01*
X181161714Y-135813438D02*
X181209333Y-135861057D01*
X181685524Y-136765819D02*
X181876000Y-136765819D01*
X181876000Y-136765819D02*
X181971238Y-136718200D01*
X181971238Y-136718200D02*
X182018857Y-136670580D01*
X182018857Y-136670580D02*
X182114095Y-136527723D01*
X182114095Y-136527723D02*
X182161714Y-136337247D01*
X182161714Y-136337247D02*
X182161714Y-135956295D01*
X182161714Y-135956295D02*
X182114095Y-135861057D01*
X182114095Y-135861057D02*
X182066476Y-135813438D01*
X182066476Y-135813438D02*
X181971238Y-135765819D01*
X181971238Y-135765819D02*
X181780762Y-135765819D01*
X181780762Y-135765819D02*
X181685524Y-135813438D01*
X181685524Y-135813438D02*
X181637905Y-135861057D01*
X181637905Y-135861057D02*
X181590286Y-135956295D01*
X181590286Y-135956295D02*
X181590286Y-136194390D01*
X181590286Y-136194390D02*
X181637905Y-136289628D01*
X181637905Y-136289628D02*
X181685524Y-136337247D01*
X181685524Y-136337247D02*
X181780762Y-136384866D01*
X181780762Y-136384866D02*
X181971238Y-136384866D01*
X181971238Y-136384866D02*
X182066476Y-136337247D01*
X182066476Y-136337247D02*
X182114095Y-136289628D01*
X182114095Y-136289628D02*
X182161714Y-136194390D01*
X140104905Y-116513819D02*
X140104905Y-115513819D01*
X140104905Y-115513819D02*
X140343000Y-115513819D01*
X140343000Y-115513819D02*
X140485857Y-115561438D01*
X140485857Y-115561438D02*
X140581095Y-115656676D01*
X140581095Y-115656676D02*
X140628714Y-115751914D01*
X140628714Y-115751914D02*
X140676333Y-115942390D01*
X140676333Y-115942390D02*
X140676333Y-116085247D01*
X140676333Y-116085247D02*
X140628714Y-116275723D01*
X140628714Y-116275723D02*
X140581095Y-116370961D01*
X140581095Y-116370961D02*
X140485857Y-116466200D01*
X140485857Y-116466200D02*
X140343000Y-116513819D01*
X140343000Y-116513819D02*
X140104905Y-116513819D01*
X141628714Y-116513819D02*
X141057286Y-116513819D01*
X141343000Y-116513819D02*
X141343000Y-115513819D01*
X141343000Y-115513819D02*
X141247762Y-115656676D01*
X141247762Y-115656676D02*
X141152524Y-115751914D01*
X141152524Y-115751914D02*
X141057286Y-115799533D01*
X132961095Y-113913819D02*
X132961095Y-112913819D01*
X133532523Y-113913819D02*
X133103952Y-113342390D01*
X133532523Y-112913819D02*
X132961095Y-113485247D01*
X134519333Y-141967819D02*
X134186000Y-141491628D01*
X133947905Y-141967819D02*
X133947905Y-140967819D01*
X133947905Y-140967819D02*
X134328857Y-140967819D01*
X134328857Y-140967819D02*
X134424095Y-141015438D01*
X134424095Y-141015438D02*
X134471714Y-141063057D01*
X134471714Y-141063057D02*
X134519333Y-141158295D01*
X134519333Y-141158295D02*
X134519333Y-141301152D01*
X134519333Y-141301152D02*
X134471714Y-141396390D01*
X134471714Y-141396390D02*
X134424095Y-141444009D01*
X134424095Y-141444009D02*
X134328857Y-141491628D01*
X134328857Y-141491628D02*
X133947905Y-141491628D01*
X134900286Y-141063057D02*
X134947905Y-141015438D01*
X134947905Y-141015438D02*
X135043143Y-140967819D01*
X135043143Y-140967819D02*
X135281238Y-140967819D01*
X135281238Y-140967819D02*
X135376476Y-141015438D01*
X135376476Y-141015438D02*
X135424095Y-141063057D01*
X135424095Y-141063057D02*
X135471714Y-141158295D01*
X135471714Y-141158295D02*
X135471714Y-141253533D01*
X135471714Y-141253533D02*
X135424095Y-141396390D01*
X135424095Y-141396390D02*
X134852667Y-141967819D01*
X134852667Y-141967819D02*
X135471714Y-141967819D01*
X158792104Y-105489285D02*
X158792104Y-105013095D01*
X159077819Y-105584523D02*
X158077819Y-105251190D01*
X158077819Y-105251190D02*
X159077819Y-104917857D01*
X158173057Y-104632142D02*
X158125438Y-104584523D01*
X158125438Y-104584523D02*
X158077819Y-104489285D01*
X158077819Y-104489285D02*
X158077819Y-104251190D01*
X158077819Y-104251190D02*
X158125438Y-104155952D01*
X158125438Y-104155952D02*
X158173057Y-104108333D01*
X158173057Y-104108333D02*
X158268295Y-104060714D01*
X158268295Y-104060714D02*
X158363533Y-104060714D01*
X158363533Y-104060714D02*
X158506390Y-104108333D01*
X158506390Y-104108333D02*
X159077819Y-104679761D01*
X159077819Y-104679761D02*
X159077819Y-104060714D01*
X198717819Y-106036904D02*
X199527342Y-106036904D01*
X199527342Y-106036904D02*
X199622580Y-105989285D01*
X199622580Y-105989285D02*
X199670200Y-105941666D01*
X199670200Y-105941666D02*
X199717819Y-105846428D01*
X199717819Y-105846428D02*
X199717819Y-105655952D01*
X199717819Y-105655952D02*
X199670200Y-105560714D01*
X199670200Y-105560714D02*
X199622580Y-105513095D01*
X199622580Y-105513095D02*
X199527342Y-105465476D01*
X199527342Y-105465476D02*
X198717819Y-105465476D01*
X199670200Y-105036904D02*
X199717819Y-104894047D01*
X199717819Y-104894047D02*
X199717819Y-104655952D01*
X199717819Y-104655952D02*
X199670200Y-104560714D01*
X199670200Y-104560714D02*
X199622580Y-104513095D01*
X199622580Y-104513095D02*
X199527342Y-104465476D01*
X199527342Y-104465476D02*
X199432104Y-104465476D01*
X199432104Y-104465476D02*
X199336866Y-104513095D01*
X199336866Y-104513095D02*
X199289247Y-104560714D01*
X199289247Y-104560714D02*
X199241628Y-104655952D01*
X199241628Y-104655952D02*
X199194009Y-104846428D01*
X199194009Y-104846428D02*
X199146390Y-104941666D01*
X199146390Y-104941666D02*
X199098771Y-104989285D01*
X199098771Y-104989285D02*
X199003533Y-105036904D01*
X199003533Y-105036904D02*
X198908295Y-105036904D01*
X198908295Y-105036904D02*
X198813057Y-104989285D01*
X198813057Y-104989285D02*
X198765438Y-104941666D01*
X198765438Y-104941666D02*
X198717819Y-104846428D01*
X198717819Y-104846428D02*
X198717819Y-104608333D01*
X198717819Y-104608333D02*
X198765438Y-104465476D01*
X199194009Y-103703571D02*
X199241628Y-103560714D01*
X199241628Y-103560714D02*
X199289247Y-103513095D01*
X199289247Y-103513095D02*
X199384485Y-103465476D01*
X199384485Y-103465476D02*
X199527342Y-103465476D01*
X199527342Y-103465476D02*
X199622580Y-103513095D01*
X199622580Y-103513095D02*
X199670200Y-103560714D01*
X199670200Y-103560714D02*
X199717819Y-103655952D01*
X199717819Y-103655952D02*
X199717819Y-104036904D01*
X199717819Y-104036904D02*
X198717819Y-104036904D01*
X198717819Y-104036904D02*
X198717819Y-103703571D01*
X198717819Y-103703571D02*
X198765438Y-103608333D01*
X198765438Y-103608333D02*
X198813057Y-103560714D01*
X198813057Y-103560714D02*
X198908295Y-103513095D01*
X198908295Y-103513095D02*
X199003533Y-103513095D01*
X199003533Y-103513095D02*
X199098771Y-103560714D01*
X199098771Y-103560714D02*
X199146390Y-103608333D01*
X199146390Y-103608333D02*
X199194009Y-103703571D01*
X199194009Y-103703571D02*
X199194009Y-104036904D01*
X200533095Y-116122819D02*
X200533095Y-116932342D01*
X200533095Y-116932342D02*
X200580714Y-117027580D01*
X200580714Y-117027580D02*
X200628333Y-117075200D01*
X200628333Y-117075200D02*
X200723571Y-117122819D01*
X200723571Y-117122819D02*
X200914047Y-117122819D01*
X200914047Y-117122819D02*
X201009285Y-117075200D01*
X201009285Y-117075200D02*
X201056904Y-117027580D01*
X201056904Y-117027580D02*
X201104523Y-116932342D01*
X201104523Y-116932342D02*
X201104523Y-116122819D01*
X201628333Y-117122819D02*
X201818809Y-117122819D01*
X201818809Y-117122819D02*
X201914047Y-117075200D01*
X201914047Y-117075200D02*
X201961666Y-117027580D01*
X201961666Y-117027580D02*
X202056904Y-116884723D01*
X202056904Y-116884723D02*
X202104523Y-116694247D01*
X202104523Y-116694247D02*
X202104523Y-116313295D01*
X202104523Y-116313295D02*
X202056904Y-116218057D01*
X202056904Y-116218057D02*
X202009285Y-116170438D01*
X202009285Y-116170438D02*
X201914047Y-116122819D01*
X201914047Y-116122819D02*
X201723571Y-116122819D01*
X201723571Y-116122819D02*
X201628333Y-116170438D01*
X201628333Y-116170438D02*
X201580714Y-116218057D01*
X201580714Y-116218057D02*
X201533095Y-116313295D01*
X201533095Y-116313295D02*
X201533095Y-116551390D01*
X201533095Y-116551390D02*
X201580714Y-116646628D01*
X201580714Y-116646628D02*
X201628333Y-116694247D01*
X201628333Y-116694247D02*
X201723571Y-116741866D01*
X201723571Y-116741866D02*
X201914047Y-116741866D01*
X201914047Y-116741866D02*
X202009285Y-116694247D01*
X202009285Y-116694247D02*
X202056904Y-116646628D01*
X202056904Y-116646628D02*
X202104523Y-116551390D01*
X186158142Y-134947819D02*
X185824809Y-134471628D01*
X185586714Y-134947819D02*
X185586714Y-133947819D01*
X185586714Y-133947819D02*
X185967666Y-133947819D01*
X185967666Y-133947819D02*
X186062904Y-133995438D01*
X186062904Y-133995438D02*
X186110523Y-134043057D01*
X186110523Y-134043057D02*
X186158142Y-134138295D01*
X186158142Y-134138295D02*
X186158142Y-134281152D01*
X186158142Y-134281152D02*
X186110523Y-134376390D01*
X186110523Y-134376390D02*
X186062904Y-134424009D01*
X186062904Y-134424009D02*
X185967666Y-134471628D01*
X185967666Y-134471628D02*
X185586714Y-134471628D01*
X187110523Y-134947819D02*
X186539095Y-134947819D01*
X186824809Y-134947819D02*
X186824809Y-133947819D01*
X186824809Y-133947819D02*
X186729571Y-134090676D01*
X186729571Y-134090676D02*
X186634333Y-134185914D01*
X186634333Y-134185914D02*
X186539095Y-134233533D01*
X188062904Y-134947819D02*
X187491476Y-134947819D01*
X187777190Y-134947819D02*
X187777190Y-133947819D01*
X187777190Y-133947819D02*
X187681952Y-134090676D01*
X187681952Y-134090676D02*
X187586714Y-134185914D01*
X187586714Y-134185914D02*
X187491476Y-134233533D01*
X181083333Y-146377819D02*
X180750000Y-145901628D01*
X180511905Y-146377819D02*
X180511905Y-145377819D01*
X180511905Y-145377819D02*
X180892857Y-145377819D01*
X180892857Y-145377819D02*
X180988095Y-145425438D01*
X180988095Y-145425438D02*
X181035714Y-145473057D01*
X181035714Y-145473057D02*
X181083333Y-145568295D01*
X181083333Y-145568295D02*
X181083333Y-145711152D01*
X181083333Y-145711152D02*
X181035714Y-145806390D01*
X181035714Y-145806390D02*
X180988095Y-145854009D01*
X180988095Y-145854009D02*
X180892857Y-145901628D01*
X180892857Y-145901628D02*
X180511905Y-145901628D01*
X181988095Y-145377819D02*
X181511905Y-145377819D01*
X181511905Y-145377819D02*
X181464286Y-145854009D01*
X181464286Y-145854009D02*
X181511905Y-145806390D01*
X181511905Y-145806390D02*
X181607143Y-145758771D01*
X181607143Y-145758771D02*
X181845238Y-145758771D01*
X181845238Y-145758771D02*
X181940476Y-145806390D01*
X181940476Y-145806390D02*
X181988095Y-145854009D01*
X181988095Y-145854009D02*
X182035714Y-145949247D01*
X182035714Y-145949247D02*
X182035714Y-146187342D01*
X182035714Y-146187342D02*
X181988095Y-146282580D01*
X181988095Y-146282580D02*
X181940476Y-146330200D01*
X181940476Y-146330200D02*
X181845238Y-146377819D01*
X181845238Y-146377819D02*
X181607143Y-146377819D01*
X181607143Y-146377819D02*
X181511905Y-146330200D01*
X181511905Y-146330200D02*
X181464286Y-146282580D01*
X134453333Y-136090819D02*
X134120000Y-135614628D01*
X133881905Y-136090819D02*
X133881905Y-135090819D01*
X133881905Y-135090819D02*
X134262857Y-135090819D01*
X134262857Y-135090819D02*
X134358095Y-135138438D01*
X134358095Y-135138438D02*
X134405714Y-135186057D01*
X134405714Y-135186057D02*
X134453333Y-135281295D01*
X134453333Y-135281295D02*
X134453333Y-135424152D01*
X134453333Y-135424152D02*
X134405714Y-135519390D01*
X134405714Y-135519390D02*
X134358095Y-135567009D01*
X134358095Y-135567009D02*
X134262857Y-135614628D01*
X134262857Y-135614628D02*
X133881905Y-135614628D01*
X135310476Y-135090819D02*
X135120000Y-135090819D01*
X135120000Y-135090819D02*
X135024762Y-135138438D01*
X135024762Y-135138438D02*
X134977143Y-135186057D01*
X134977143Y-135186057D02*
X134881905Y-135328914D01*
X134881905Y-135328914D02*
X134834286Y-135519390D01*
X134834286Y-135519390D02*
X134834286Y-135900342D01*
X134834286Y-135900342D02*
X134881905Y-135995580D01*
X134881905Y-135995580D02*
X134929524Y-136043200D01*
X134929524Y-136043200D02*
X135024762Y-136090819D01*
X135024762Y-136090819D02*
X135215238Y-136090819D01*
X135215238Y-136090819D02*
X135310476Y-136043200D01*
X135310476Y-136043200D02*
X135358095Y-135995580D01*
X135358095Y-135995580D02*
X135405714Y-135900342D01*
X135405714Y-135900342D02*
X135405714Y-135662247D01*
X135405714Y-135662247D02*
X135358095Y-135567009D01*
X135358095Y-135567009D02*
X135310476Y-135519390D01*
X135310476Y-135519390D02*
X135215238Y-135471771D01*
X135215238Y-135471771D02*
X135024762Y-135471771D01*
X135024762Y-135471771D02*
X134929524Y-135519390D01*
X134929524Y-135519390D02*
X134881905Y-135567009D01*
X134881905Y-135567009D02*
X134834286Y-135662247D01*
X140104905Y-119543819D02*
X140104905Y-118543819D01*
X140104905Y-118543819D02*
X140343000Y-118543819D01*
X140343000Y-118543819D02*
X140485857Y-118591438D01*
X140485857Y-118591438D02*
X140581095Y-118686676D01*
X140581095Y-118686676D02*
X140628714Y-118781914D01*
X140628714Y-118781914D02*
X140676333Y-118972390D01*
X140676333Y-118972390D02*
X140676333Y-119115247D01*
X140676333Y-119115247D02*
X140628714Y-119305723D01*
X140628714Y-119305723D02*
X140581095Y-119400961D01*
X140581095Y-119400961D02*
X140485857Y-119496200D01*
X140485857Y-119496200D02*
X140343000Y-119543819D01*
X140343000Y-119543819D02*
X140104905Y-119543819D01*
X141057286Y-118639057D02*
X141104905Y-118591438D01*
X141104905Y-118591438D02*
X141200143Y-118543819D01*
X141200143Y-118543819D02*
X141438238Y-118543819D01*
X141438238Y-118543819D02*
X141533476Y-118591438D01*
X141533476Y-118591438D02*
X141581095Y-118639057D01*
X141581095Y-118639057D02*
X141628714Y-118734295D01*
X141628714Y-118734295D02*
X141628714Y-118829533D01*
X141628714Y-118829533D02*
X141581095Y-118972390D01*
X141581095Y-118972390D02*
X141009667Y-119543819D01*
X141009667Y-119543819D02*
X141628714Y-119543819D01*
X132961095Y-120663819D02*
X132961095Y-119663819D01*
X133532523Y-120663819D02*
X133103952Y-120092390D01*
X133532523Y-119663819D02*
X132961095Y-120235247D01*
X152786333Y-142806819D02*
X152453000Y-142330628D01*
X152214905Y-142806819D02*
X152214905Y-141806819D01*
X152214905Y-141806819D02*
X152595857Y-141806819D01*
X152595857Y-141806819D02*
X152691095Y-141854438D01*
X152691095Y-141854438D02*
X152738714Y-141902057D01*
X152738714Y-141902057D02*
X152786333Y-141997295D01*
X152786333Y-141997295D02*
X152786333Y-142140152D01*
X152786333Y-142140152D02*
X152738714Y-142235390D01*
X152738714Y-142235390D02*
X152691095Y-142283009D01*
X152691095Y-142283009D02*
X152595857Y-142330628D01*
X152595857Y-142330628D02*
X152214905Y-142330628D01*
X153357762Y-142235390D02*
X153262524Y-142187771D01*
X153262524Y-142187771D02*
X153214905Y-142140152D01*
X153214905Y-142140152D02*
X153167286Y-142044914D01*
X153167286Y-142044914D02*
X153167286Y-141997295D01*
X153167286Y-141997295D02*
X153214905Y-141902057D01*
X153214905Y-141902057D02*
X153262524Y-141854438D01*
X153262524Y-141854438D02*
X153357762Y-141806819D01*
X153357762Y-141806819D02*
X153548238Y-141806819D01*
X153548238Y-141806819D02*
X153643476Y-141854438D01*
X153643476Y-141854438D02*
X153691095Y-141902057D01*
X153691095Y-141902057D02*
X153738714Y-141997295D01*
X153738714Y-141997295D02*
X153738714Y-142044914D01*
X153738714Y-142044914D02*
X153691095Y-142140152D01*
X153691095Y-142140152D02*
X153643476Y-142187771D01*
X153643476Y-142187771D02*
X153548238Y-142235390D01*
X153548238Y-142235390D02*
X153357762Y-142235390D01*
X153357762Y-142235390D02*
X153262524Y-142283009D01*
X153262524Y-142283009D02*
X153214905Y-142330628D01*
X153214905Y-142330628D02*
X153167286Y-142425866D01*
X153167286Y-142425866D02*
X153167286Y-142616342D01*
X153167286Y-142616342D02*
X153214905Y-142711580D01*
X153214905Y-142711580D02*
X153262524Y-142759200D01*
X153262524Y-142759200D02*
X153357762Y-142806819D01*
X153357762Y-142806819D02*
X153548238Y-142806819D01*
X153548238Y-142806819D02*
X153643476Y-142759200D01*
X153643476Y-142759200D02*
X153691095Y-142711580D01*
X153691095Y-142711580D02*
X153738714Y-142616342D01*
X153738714Y-142616342D02*
X153738714Y-142425866D01*
X153738714Y-142425866D02*
X153691095Y-142330628D01*
X153691095Y-142330628D02*
X153643476Y-142283009D01*
X153643476Y-142283009D02*
X153548238Y-142235390D01*
X156167761Y-97340819D02*
X155834428Y-96864628D01*
X155596333Y-97340819D02*
X155596333Y-96340819D01*
X155596333Y-96340819D02*
X155977285Y-96340819D01*
X155977285Y-96340819D02*
X156072523Y-96388438D01*
X156072523Y-96388438D02*
X156120142Y-96436057D01*
X156120142Y-96436057D02*
X156167761Y-96531295D01*
X156167761Y-96531295D02*
X156167761Y-96674152D01*
X156167761Y-96674152D02*
X156120142Y-96769390D01*
X156120142Y-96769390D02*
X156072523Y-96817009D01*
X156072523Y-96817009D02*
X155977285Y-96864628D01*
X155977285Y-96864628D02*
X155596333Y-96864628D01*
X156453476Y-96340819D02*
X156786809Y-97340819D01*
X156786809Y-97340819D02*
X157120142Y-96340819D01*
X157977285Y-97340819D02*
X157405857Y-97340819D01*
X157691571Y-97340819D02*
X157691571Y-96340819D01*
X157691571Y-96340819D02*
X157596333Y-96483676D01*
X157596333Y-96483676D02*
X157501095Y-96578914D01*
X157501095Y-96578914D02*
X157405857Y-96626533D01*
X188854095Y-116122819D02*
X188854095Y-116932342D01*
X188854095Y-116932342D02*
X188901714Y-117027580D01*
X188901714Y-117027580D02*
X188949333Y-117075200D01*
X188949333Y-117075200D02*
X189044571Y-117122819D01*
X189044571Y-117122819D02*
X189235047Y-117122819D01*
X189235047Y-117122819D02*
X189330285Y-117075200D01*
X189330285Y-117075200D02*
X189377904Y-117027580D01*
X189377904Y-117027580D02*
X189425523Y-116932342D01*
X189425523Y-116932342D02*
X189425523Y-116122819D01*
X189806476Y-116122819D02*
X190473142Y-116122819D01*
X190473142Y-116122819D02*
X190044571Y-117122819D01*
X153650333Y-122533580D02*
X153602714Y-122581200D01*
X153602714Y-122581200D02*
X153459857Y-122628819D01*
X153459857Y-122628819D02*
X153364619Y-122628819D01*
X153364619Y-122628819D02*
X153221762Y-122581200D01*
X153221762Y-122581200D02*
X153126524Y-122485961D01*
X153126524Y-122485961D02*
X153078905Y-122390723D01*
X153078905Y-122390723D02*
X153031286Y-122200247D01*
X153031286Y-122200247D02*
X153031286Y-122057390D01*
X153031286Y-122057390D02*
X153078905Y-121866914D01*
X153078905Y-121866914D02*
X153126524Y-121771676D01*
X153126524Y-121771676D02*
X153221762Y-121676438D01*
X153221762Y-121676438D02*
X153364619Y-121628819D01*
X153364619Y-121628819D02*
X153459857Y-121628819D01*
X153459857Y-121628819D02*
X153602714Y-121676438D01*
X153602714Y-121676438D02*
X153650333Y-121724057D01*
X154507476Y-121962152D02*
X154507476Y-122628819D01*
X154269381Y-121581200D02*
X154031286Y-122295485D01*
X154031286Y-122295485D02*
X154650333Y-122295485D01*
X134519333Y-138817819D02*
X134186000Y-138341628D01*
X133947905Y-138817819D02*
X133947905Y-137817819D01*
X133947905Y-137817819D02*
X134328857Y-137817819D01*
X134328857Y-137817819D02*
X134424095Y-137865438D01*
X134424095Y-137865438D02*
X134471714Y-137913057D01*
X134471714Y-137913057D02*
X134519333Y-138008295D01*
X134519333Y-138008295D02*
X134519333Y-138151152D01*
X134519333Y-138151152D02*
X134471714Y-138246390D01*
X134471714Y-138246390D02*
X134424095Y-138294009D01*
X134424095Y-138294009D02*
X134328857Y-138341628D01*
X134328857Y-138341628D02*
X133947905Y-138341628D01*
X135471714Y-138817819D02*
X134900286Y-138817819D01*
X135186000Y-138817819D02*
X135186000Y-137817819D01*
X135186000Y-137817819D02*
X135090762Y-137960676D01*
X135090762Y-137960676D02*
X134995524Y-138055914D01*
X134995524Y-138055914D02*
X134900286Y-138103533D01*
X174511142Y-134947819D02*
X174177809Y-134471628D01*
X173939714Y-134947819D02*
X173939714Y-133947819D01*
X173939714Y-133947819D02*
X174320666Y-133947819D01*
X174320666Y-133947819D02*
X174415904Y-133995438D01*
X174415904Y-133995438D02*
X174463523Y-134043057D01*
X174463523Y-134043057D02*
X174511142Y-134138295D01*
X174511142Y-134138295D02*
X174511142Y-134281152D01*
X174511142Y-134281152D02*
X174463523Y-134376390D01*
X174463523Y-134376390D02*
X174415904Y-134424009D01*
X174415904Y-134424009D02*
X174320666Y-134471628D01*
X174320666Y-134471628D02*
X173939714Y-134471628D01*
X175463523Y-134947819D02*
X174892095Y-134947819D01*
X175177809Y-134947819D02*
X175177809Y-133947819D01*
X175177809Y-133947819D02*
X175082571Y-134090676D01*
X175082571Y-134090676D02*
X174987333Y-134185914D01*
X174987333Y-134185914D02*
X174892095Y-134233533D01*
X175844476Y-134043057D02*
X175892095Y-133995438D01*
X175892095Y-133995438D02*
X175987333Y-133947819D01*
X175987333Y-133947819D02*
X176225428Y-133947819D01*
X176225428Y-133947819D02*
X176320666Y-133995438D01*
X176320666Y-133995438D02*
X176368285Y-134043057D01*
X176368285Y-134043057D02*
X176415904Y-134138295D01*
X176415904Y-134138295D02*
X176415904Y-134233533D01*
X176415904Y-134233533D02*
X176368285Y-134376390D01*
X176368285Y-134376390D02*
X175796857Y-134947819D01*
X175796857Y-134947819D02*
X176415904Y-134947819D01*
X187813333Y-141456580D02*
X187765714Y-141504200D01*
X187765714Y-141504200D02*
X187622857Y-141551819D01*
X187622857Y-141551819D02*
X187527619Y-141551819D01*
X187527619Y-141551819D02*
X187384762Y-141504200D01*
X187384762Y-141504200D02*
X187289524Y-141408961D01*
X187289524Y-141408961D02*
X187241905Y-141313723D01*
X187241905Y-141313723D02*
X187194286Y-141123247D01*
X187194286Y-141123247D02*
X187194286Y-140980390D01*
X187194286Y-140980390D02*
X187241905Y-140789914D01*
X187241905Y-140789914D02*
X187289524Y-140694676D01*
X187289524Y-140694676D02*
X187384762Y-140599438D01*
X187384762Y-140599438D02*
X187527619Y-140551819D01*
X187527619Y-140551819D02*
X187622857Y-140551819D01*
X187622857Y-140551819D02*
X187765714Y-140599438D01*
X187765714Y-140599438D02*
X187813333Y-140647057D01*
X188384762Y-140980390D02*
X188289524Y-140932771D01*
X188289524Y-140932771D02*
X188241905Y-140885152D01*
X188241905Y-140885152D02*
X188194286Y-140789914D01*
X188194286Y-140789914D02*
X188194286Y-140742295D01*
X188194286Y-140742295D02*
X188241905Y-140647057D01*
X188241905Y-140647057D02*
X188289524Y-140599438D01*
X188289524Y-140599438D02*
X188384762Y-140551819D01*
X188384762Y-140551819D02*
X188575238Y-140551819D01*
X188575238Y-140551819D02*
X188670476Y-140599438D01*
X188670476Y-140599438D02*
X188718095Y-140647057D01*
X188718095Y-140647057D02*
X188765714Y-140742295D01*
X188765714Y-140742295D02*
X188765714Y-140789914D01*
X188765714Y-140789914D02*
X188718095Y-140885152D01*
X188718095Y-140885152D02*
X188670476Y-140932771D01*
X188670476Y-140932771D02*
X188575238Y-140980390D01*
X188575238Y-140980390D02*
X188384762Y-140980390D01*
X188384762Y-140980390D02*
X188289524Y-141028009D01*
X188289524Y-141028009D02*
X188241905Y-141075628D01*
X188241905Y-141075628D02*
X188194286Y-141170866D01*
X188194286Y-141170866D02*
X188194286Y-141361342D01*
X188194286Y-141361342D02*
X188241905Y-141456580D01*
X188241905Y-141456580D02*
X188289524Y-141504200D01*
X188289524Y-141504200D02*
X188384762Y-141551819D01*
X188384762Y-141551819D02*
X188575238Y-141551819D01*
X188575238Y-141551819D02*
X188670476Y-141504200D01*
X188670476Y-141504200D02*
X188718095Y-141456580D01*
X188718095Y-141456580D02*
X188765714Y-141361342D01*
X188765714Y-141361342D02*
X188765714Y-141170866D01*
X188765714Y-141170866D02*
X188718095Y-141075628D01*
X188718095Y-141075628D02*
X188670476Y-141028009D01*
X188670476Y-141028009D02*
X188575238Y-140980390D01*
X134519333Y-148267819D02*
X134186000Y-147791628D01*
X133947905Y-148267819D02*
X133947905Y-147267819D01*
X133947905Y-147267819D02*
X134328857Y-147267819D01*
X134328857Y-147267819D02*
X134424095Y-147315438D01*
X134424095Y-147315438D02*
X134471714Y-147363057D01*
X134471714Y-147363057D02*
X134519333Y-147458295D01*
X134519333Y-147458295D02*
X134519333Y-147601152D01*
X134519333Y-147601152D02*
X134471714Y-147696390D01*
X134471714Y-147696390D02*
X134424095Y-147744009D01*
X134424095Y-147744009D02*
X134328857Y-147791628D01*
X134328857Y-147791628D02*
X133947905Y-147791628D01*
X135376476Y-147601152D02*
X135376476Y-148267819D01*
X135138381Y-147220200D02*
X134900286Y-147934485D01*
X134900286Y-147934485D02*
X135519333Y-147934485D01*
X142982333Y-133709580D02*
X142934714Y-133757200D01*
X142934714Y-133757200D02*
X142791857Y-133804819D01*
X142791857Y-133804819D02*
X142696619Y-133804819D01*
X142696619Y-133804819D02*
X142553762Y-133757200D01*
X142553762Y-133757200D02*
X142458524Y-133661961D01*
X142458524Y-133661961D02*
X142410905Y-133566723D01*
X142410905Y-133566723D02*
X142363286Y-133376247D01*
X142363286Y-133376247D02*
X142363286Y-133233390D01*
X142363286Y-133233390D02*
X142410905Y-133042914D01*
X142410905Y-133042914D02*
X142458524Y-132947676D01*
X142458524Y-132947676D02*
X142553762Y-132852438D01*
X142553762Y-132852438D02*
X142696619Y-132804819D01*
X142696619Y-132804819D02*
X142791857Y-132804819D01*
X142791857Y-132804819D02*
X142934714Y-132852438D01*
X142934714Y-132852438D02*
X142982333Y-132900057D01*
X143363286Y-132900057D02*
X143410905Y-132852438D01*
X143410905Y-132852438D02*
X143506143Y-132804819D01*
X143506143Y-132804819D02*
X143744238Y-132804819D01*
X143744238Y-132804819D02*
X143839476Y-132852438D01*
X143839476Y-132852438D02*
X143887095Y-132900057D01*
X143887095Y-132900057D02*
X143934714Y-132995295D01*
X143934714Y-132995295D02*
X143934714Y-133090533D01*
X143934714Y-133090533D02*
X143887095Y-133233390D01*
X143887095Y-133233390D02*
X143315667Y-133804819D01*
X143315667Y-133804819D02*
X143934714Y-133804819D01*
X153777333Y-111905580D02*
X153729714Y-111953200D01*
X153729714Y-111953200D02*
X153586857Y-112000819D01*
X153586857Y-112000819D02*
X153491619Y-112000819D01*
X153491619Y-112000819D02*
X153348762Y-111953200D01*
X153348762Y-111953200D02*
X153253524Y-111857961D01*
X153253524Y-111857961D02*
X153205905Y-111762723D01*
X153205905Y-111762723D02*
X153158286Y-111572247D01*
X153158286Y-111572247D02*
X153158286Y-111429390D01*
X153158286Y-111429390D02*
X153205905Y-111238914D01*
X153205905Y-111238914D02*
X153253524Y-111143676D01*
X153253524Y-111143676D02*
X153348762Y-111048438D01*
X153348762Y-111048438D02*
X153491619Y-111000819D01*
X153491619Y-111000819D02*
X153586857Y-111000819D01*
X153586857Y-111000819D02*
X153729714Y-111048438D01*
X153729714Y-111048438D02*
X153777333Y-111096057D01*
X154634476Y-111000819D02*
X154444000Y-111000819D01*
X154444000Y-111000819D02*
X154348762Y-111048438D01*
X154348762Y-111048438D02*
X154301143Y-111096057D01*
X154301143Y-111096057D02*
X154205905Y-111238914D01*
X154205905Y-111238914D02*
X154158286Y-111429390D01*
X154158286Y-111429390D02*
X154158286Y-111810342D01*
X154158286Y-111810342D02*
X154205905Y-111905580D01*
X154205905Y-111905580D02*
X154253524Y-111953200D01*
X154253524Y-111953200D02*
X154348762Y-112000819D01*
X154348762Y-112000819D02*
X154539238Y-112000819D01*
X154539238Y-112000819D02*
X154634476Y-111953200D01*
X154634476Y-111953200D02*
X154682095Y-111905580D01*
X154682095Y-111905580D02*
X154729714Y-111810342D01*
X154729714Y-111810342D02*
X154729714Y-111572247D01*
X154729714Y-111572247D02*
X154682095Y-111477009D01*
X154682095Y-111477009D02*
X154634476Y-111429390D01*
X154634476Y-111429390D02*
X154539238Y-111381771D01*
X154539238Y-111381771D02*
X154348762Y-111381771D01*
X154348762Y-111381771D02*
X154253524Y-111429390D01*
X154253524Y-111429390D02*
X154205905Y-111477009D01*
X154205905Y-111477009D02*
X154158286Y-111572247D01*
X153737333Y-127359580D02*
X153689714Y-127407200D01*
X153689714Y-127407200D02*
X153546857Y-127454819D01*
X153546857Y-127454819D02*
X153451619Y-127454819D01*
X153451619Y-127454819D02*
X153308762Y-127407200D01*
X153308762Y-127407200D02*
X153213524Y-127311961D01*
X153213524Y-127311961D02*
X153165905Y-127216723D01*
X153165905Y-127216723D02*
X153118286Y-127026247D01*
X153118286Y-127026247D02*
X153118286Y-126883390D01*
X153118286Y-126883390D02*
X153165905Y-126692914D01*
X153165905Y-126692914D02*
X153213524Y-126597676D01*
X153213524Y-126597676D02*
X153308762Y-126502438D01*
X153308762Y-126502438D02*
X153451619Y-126454819D01*
X153451619Y-126454819D02*
X153546857Y-126454819D01*
X153546857Y-126454819D02*
X153689714Y-126502438D01*
X153689714Y-126502438D02*
X153737333Y-126550057D01*
X154642095Y-126454819D02*
X154165905Y-126454819D01*
X154165905Y-126454819D02*
X154118286Y-126931009D01*
X154118286Y-126931009D02*
X154165905Y-126883390D01*
X154165905Y-126883390D02*
X154261143Y-126835771D01*
X154261143Y-126835771D02*
X154499238Y-126835771D01*
X154499238Y-126835771D02*
X154594476Y-126883390D01*
X154594476Y-126883390D02*
X154642095Y-126931009D01*
X154642095Y-126931009D02*
X154689714Y-127026247D01*
X154689714Y-127026247D02*
X154689714Y-127264342D01*
X154689714Y-127264342D02*
X154642095Y-127359580D01*
X154642095Y-127359580D02*
X154594476Y-127407200D01*
X154594476Y-127407200D02*
X154499238Y-127454819D01*
X154499238Y-127454819D02*
X154261143Y-127454819D01*
X154261143Y-127454819D02*
X154165905Y-127407200D01*
X154165905Y-127407200D02*
X154118286Y-127359580D01*
X151849761Y-130106819D02*
X151516428Y-129630628D01*
X151278333Y-130106819D02*
X151278333Y-129106819D01*
X151278333Y-129106819D02*
X151659285Y-129106819D01*
X151659285Y-129106819D02*
X151754523Y-129154438D01*
X151754523Y-129154438D02*
X151802142Y-129202057D01*
X151802142Y-129202057D02*
X151849761Y-129297295D01*
X151849761Y-129297295D02*
X151849761Y-129440152D01*
X151849761Y-129440152D02*
X151802142Y-129535390D01*
X151802142Y-129535390D02*
X151754523Y-129583009D01*
X151754523Y-129583009D02*
X151659285Y-129630628D01*
X151659285Y-129630628D02*
X151278333Y-129630628D01*
X152135476Y-129106819D02*
X152468809Y-130106819D01*
X152468809Y-130106819D02*
X152802142Y-129106819D01*
X153087857Y-129202057D02*
X153135476Y-129154438D01*
X153135476Y-129154438D02*
X153230714Y-129106819D01*
X153230714Y-129106819D02*
X153468809Y-129106819D01*
X153468809Y-129106819D02*
X153564047Y-129154438D01*
X153564047Y-129154438D02*
X153611666Y-129202057D01*
X153611666Y-129202057D02*
X153659285Y-129297295D01*
X153659285Y-129297295D02*
X153659285Y-129392533D01*
X153659285Y-129392533D02*
X153611666Y-129535390D01*
X153611666Y-129535390D02*
X153040238Y-130106819D01*
X153040238Y-130106819D02*
X153659285Y-130106819D01*
X176451819Y-145581333D02*
X177166104Y-145581333D01*
X177166104Y-145581333D02*
X177308961Y-145628952D01*
X177308961Y-145628952D02*
X177404200Y-145724190D01*
X177404200Y-145724190D02*
X177451819Y-145867047D01*
X177451819Y-145867047D02*
X177451819Y-145962285D01*
X177451819Y-144581333D02*
X177451819Y-145152761D01*
X177451819Y-144867047D02*
X176451819Y-144867047D01*
X176451819Y-144867047D02*
X176594676Y-144962285D01*
X176594676Y-144962285D02*
X176689914Y-145057523D01*
X176689914Y-145057523D02*
X176737533Y-145152761D01*
X164046819Y-124332904D02*
X164856342Y-124332904D01*
X164856342Y-124332904D02*
X164951580Y-124285285D01*
X164951580Y-124285285D02*
X164999200Y-124237666D01*
X164999200Y-124237666D02*
X165046819Y-124142428D01*
X165046819Y-124142428D02*
X165046819Y-123951952D01*
X165046819Y-123951952D02*
X164999200Y-123856714D01*
X164999200Y-123856714D02*
X164951580Y-123809095D01*
X164951580Y-123809095D02*
X164856342Y-123761476D01*
X164856342Y-123761476D02*
X164046819Y-123761476D01*
X164142057Y-123332904D02*
X164094438Y-123285285D01*
X164094438Y-123285285D02*
X164046819Y-123190047D01*
X164046819Y-123190047D02*
X164046819Y-122951952D01*
X164046819Y-122951952D02*
X164094438Y-122856714D01*
X164094438Y-122856714D02*
X164142057Y-122809095D01*
X164142057Y-122809095D02*
X164237295Y-122761476D01*
X164237295Y-122761476D02*
X164332533Y-122761476D01*
X164332533Y-122761476D02*
X164475390Y-122809095D01*
X164475390Y-122809095D02*
X165046819Y-123380523D01*
X165046819Y-123380523D02*
X165046819Y-122761476D01*
X134519333Y-145117819D02*
X134186000Y-144641628D01*
X133947905Y-145117819D02*
X133947905Y-144117819D01*
X133947905Y-144117819D02*
X134328857Y-144117819D01*
X134328857Y-144117819D02*
X134424095Y-144165438D01*
X134424095Y-144165438D02*
X134471714Y-144213057D01*
X134471714Y-144213057D02*
X134519333Y-144308295D01*
X134519333Y-144308295D02*
X134519333Y-144451152D01*
X134519333Y-144451152D02*
X134471714Y-144546390D01*
X134471714Y-144546390D02*
X134424095Y-144594009D01*
X134424095Y-144594009D02*
X134328857Y-144641628D01*
X134328857Y-144641628D02*
X133947905Y-144641628D01*
X134852667Y-144117819D02*
X135471714Y-144117819D01*
X135471714Y-144117819D02*
X135138381Y-144498771D01*
X135138381Y-144498771D02*
X135281238Y-144498771D01*
X135281238Y-144498771D02*
X135376476Y-144546390D01*
X135376476Y-144546390D02*
X135424095Y-144594009D01*
X135424095Y-144594009D02*
X135471714Y-144689247D01*
X135471714Y-144689247D02*
X135471714Y-144927342D01*
X135471714Y-144927342D02*
X135424095Y-145022580D01*
X135424095Y-145022580D02*
X135376476Y-145070200D01*
X135376476Y-145070200D02*
X135281238Y-145117819D01*
X135281238Y-145117819D02*
X134995524Y-145117819D01*
X134995524Y-145117819D02*
X134900286Y-145070200D01*
X134900286Y-145070200D02*
X134852667Y-145022580D01*
D11*
%TO.C,R9*%
X152323095Y-148171359D02*
G75*
G02*
X152420133Y-146722000I-320095J749359D01*
G01*
%TO.C,R10*%
X197810095Y-133337359D02*
G75*
G02*
X197907133Y-131888000I-320095J749359D01*
G01*
%TO.C,C3*%
X144311000Y-128805000D02*
X144311000Y-129605000D01*
X144311000Y-128805000D02*
X148551000Y-128805000D01*
X144311000Y-130745000D02*
X144311000Y-131545000D01*
X144311000Y-131545000D02*
X148551000Y-131545000D01*
X148551000Y-128805000D02*
X148551000Y-129605000D01*
X148551000Y-130745000D02*
X148551000Y-131545000D01*
%TO.C,C1*%
X159551000Y-132361000D02*
X159551000Y-133161000D01*
X159551000Y-132361000D02*
X163791000Y-132361000D01*
X159551000Y-134301000D02*
X159551000Y-135101000D01*
X159551000Y-135101000D02*
X163791000Y-135101000D01*
X163791000Y-132361000D02*
X163791000Y-133161000D01*
X163791000Y-134301000D02*
X163791000Y-135101000D01*
%TO.C,U10*%
X141749000Y-136845000D02*
X141749000Y-150175000D01*
X141749000Y-150175000D02*
X147049000Y-150175000D01*
X143399000Y-136845000D02*
X141749000Y-136845000D01*
X147049000Y-136845000D02*
X145399000Y-136845000D01*
X147049000Y-150175000D02*
X147049000Y-136845000D01*
X145399000Y-136845000D02*
G75*
G02*
X143399000Y-136845000I-1000000J0D01*
G01*
%TO.C,R7*%
X152323095Y-141871359D02*
G75*
G02*
X152420133Y-140422000I-320095J749359D01*
G01*
%TO.C,C7*%
X165901000Y-132488000D02*
X165901000Y-133288000D01*
X165901000Y-132488000D02*
X170141000Y-132488000D01*
X165901000Y-134428000D02*
X165901000Y-135228000D01*
X165901000Y-135228000D02*
X170141000Y-135228000D01*
X170141000Y-132488000D02*
X170141000Y-133288000D01*
X170141000Y-134428000D02*
X170141000Y-135228000D01*
%TO.C,U8*%
X175277000Y-117668000D02*
X175277000Y-130998000D01*
X175277000Y-130998000D02*
X180577000Y-130998000D01*
X176927000Y-117668000D02*
X175277000Y-117668000D01*
X180577000Y-117668000D02*
X178927000Y-117668000D01*
X180577000Y-130998000D02*
X180577000Y-117668000D01*
X178927000Y-117668000D02*
G75*
G02*
X176927000Y-117668000I-1000000J0D01*
G01*
%TO.C,C9*%
X179256000Y-137441000D02*
X179256000Y-138241000D01*
X179256000Y-137441000D02*
X183496000Y-137441000D01*
X179256000Y-139381000D02*
X179256000Y-140181000D01*
X179256000Y-140181000D02*
X183496000Y-140181000D01*
X183496000Y-137441000D02*
X183496000Y-138241000D01*
X183496000Y-139381000D02*
X183496000Y-140181000D01*
%TO.C,D1*%
X135063000Y-116059000D02*
X135973000Y-116059000D01*
X135973000Y-113339000D02*
X135973000Y-118779000D01*
X135973000Y-118779000D02*
X145713000Y-118779000D01*
X137398000Y-113339000D02*
X137398000Y-118779000D01*
X137518000Y-113339000D02*
X137518000Y-118779000D01*
X137638000Y-113339000D02*
X137638000Y-118779000D01*
X145713000Y-113339000D02*
X135973000Y-113339000D01*
X145713000Y-118779000D02*
X145713000Y-113339000D01*
X146623000Y-116059000D02*
X145713000Y-116059000D01*
%TO.C,R2*%
X134056095Y-144182359D02*
G75*
G02*
X134153133Y-142733000I-320095J749359D01*
G01*
%TO.C,A2*%
X159763000Y-95755000D02*
X159763000Y-113795000D01*
X159763000Y-113795000D02*
X162433000Y-113795000D01*
X162433000Y-98425000D02*
X162433000Y-95755000D01*
X162433000Y-98425000D02*
X200533000Y-98425000D01*
X162433000Y-111125000D02*
X162433000Y-113795000D01*
X164973000Y-111125000D02*
X162433000Y-111125000D01*
X164973000Y-111125000D02*
X164973000Y-113795000D01*
X164973000Y-111125000D02*
X200533000Y-111125000D01*
X164973000Y-113795000D02*
X203203000Y-113795000D01*
X195323000Y-100835000D02*
X205743000Y-100835000D01*
X195323000Y-108715000D02*
X195323000Y-100835000D01*
X200533000Y-98425000D02*
X200533000Y-95755000D01*
X200533000Y-111125000D02*
X200533000Y-113795000D01*
X203203000Y-95755000D02*
X159763000Y-95755000D01*
X203203000Y-95755000D02*
X203203000Y-100835000D01*
X203203000Y-113795000D02*
X203203000Y-108715000D01*
X205743000Y-100835000D02*
X205743000Y-108715000D01*
X205743000Y-108715000D02*
X195323000Y-108715000D01*
%TO.C,U9*%
X198645000Y-117668000D02*
X198645000Y-130998000D01*
X198645000Y-130998000D02*
X203945000Y-130998000D01*
X200295000Y-117668000D02*
X198645000Y-117668000D01*
X203945000Y-117668000D02*
X202295000Y-117668000D01*
X203945000Y-130998000D02*
X203945000Y-117668000D01*
X202295000Y-117668000D02*
G75*
G02*
X200295000Y-117668000I-1000000J0D01*
G01*
%TO.C,R11*%
X186105095Y-133464359D02*
G75*
G02*
X186202133Y-132015000I-320095J749359D01*
G01*
%TO.C,R5*%
X180665095Y-144894359D02*
G75*
G02*
X180762133Y-143445000I-320095J749359D01*
G01*
%TO.C,R6*%
X133920095Y-138188359D02*
G75*
G02*
X134017133Y-136739000I-320095J749359D01*
G01*
%TO.C,D2*%
X135063000Y-122809000D02*
X135973000Y-122809000D01*
X135973000Y-120089000D02*
X135973000Y-125529000D01*
X135973000Y-125529000D02*
X145713000Y-125529000D01*
X137398000Y-120089000D02*
X137398000Y-125529000D01*
X137518000Y-120089000D02*
X137518000Y-125529000D01*
X137638000Y-120089000D02*
X137638000Y-125529000D01*
X145713000Y-120089000D02*
X135973000Y-120089000D01*
X145713000Y-125529000D02*
X145713000Y-120089000D01*
X146623000Y-122809000D02*
X145713000Y-122809000D01*
%TO.C,R8*%
X152323095Y-145021359D02*
G75*
G02*
X152420133Y-143572000I-320095J749359D01*
G01*
%TO.C,RV1*%
X156133095Y-99555359D02*
G75*
G02*
X156230133Y-98106000I-320095J749359D01*
G01*
%TO.C,U7*%
X186966000Y-117668000D02*
X186966000Y-130998000D01*
X186966000Y-130998000D02*
X192266000Y-130998000D01*
X188616000Y-117668000D02*
X186966000Y-117668000D01*
X192266000Y-117668000D02*
X190616000Y-117668000D01*
X192266000Y-130998000D02*
X192266000Y-117668000D01*
X190616000Y-117668000D02*
G75*
G02*
X188616000Y-117668000I-1000000J0D01*
G01*
%TO.C,C4*%
X151804000Y-119064000D02*
X151804000Y-118264000D01*
X151804000Y-121004000D02*
X151804000Y-120204000D01*
X156044000Y-118264000D02*
X151804000Y-118264000D01*
X156044000Y-119064000D02*
X156044000Y-118264000D01*
X156044000Y-121004000D02*
X151804000Y-121004000D01*
X156044000Y-121004000D02*
X156044000Y-120204000D01*
%TO.C,R1*%
X134056095Y-141032359D02*
G75*
G02*
X134153133Y-139583000I-320095J749359D01*
G01*
%TO.C,R12*%
X174442095Y-133337359D02*
G75*
G02*
X174539133Y-131888000I-320095J749359D01*
G01*
%TO.C,C8*%
X185860000Y-137441000D02*
X185860000Y-138241000D01*
X185860000Y-137441000D02*
X190100000Y-137441000D01*
X185860000Y-139381000D02*
X185860000Y-140181000D01*
X185860000Y-140181000D02*
X190100000Y-140181000D01*
X190100000Y-137441000D02*
X190100000Y-138241000D01*
X190100000Y-139381000D02*
X190100000Y-140181000D01*
%TO.C,R4*%
X134056095Y-150482359D02*
G75*
G02*
X134153133Y-149033000I-320095J749359D01*
G01*
%TO.C,C2*%
X144331000Y-131980000D02*
X144331000Y-132780000D01*
X144331000Y-131980000D02*
X148571000Y-131980000D01*
X144331000Y-133920000D02*
X144331000Y-134720000D01*
X144331000Y-134720000D02*
X148571000Y-134720000D01*
X148571000Y-131980000D02*
X148571000Y-132780000D01*
X148571000Y-133920000D02*
X148571000Y-134720000D01*
%TO.C,C6*%
X151824000Y-112676000D02*
X151824000Y-113476000D01*
X151824000Y-112676000D02*
X156064000Y-112676000D01*
X151824000Y-114616000D02*
X151824000Y-115416000D01*
X151824000Y-115416000D02*
X156064000Y-115416000D01*
X156064000Y-112676000D02*
X156064000Y-113476000D01*
X156064000Y-114616000D02*
X156064000Y-115416000D01*
%TO.C,C5*%
X151804000Y-122963000D02*
X151804000Y-123763000D01*
X151804000Y-122963000D02*
X156044000Y-122963000D01*
X151804000Y-124903000D02*
X151804000Y-125703000D01*
X151804000Y-125703000D02*
X156044000Y-125703000D01*
X156044000Y-122963000D02*
X156044000Y-123763000D01*
X156044000Y-124903000D02*
X156044000Y-125703000D01*
%TO.C,RV2*%
X151815095Y-132321359D02*
G75*
G02*
X151912133Y-130872000I-320095J749359D01*
G01*
%TO.C,J1*%
X158897000Y-138648000D02*
X162897000Y-138648000D01*
X158897000Y-151848000D02*
X158897000Y-138648000D01*
X162897000Y-137698000D02*
X173647000Y-137698000D01*
X162897000Y-138648000D02*
X162897000Y-137698000D01*
X162897000Y-151848000D02*
X158897000Y-151848000D01*
X162897000Y-152798000D02*
X162897000Y-151848000D01*
X173647000Y-137698000D02*
X176097000Y-141248000D01*
X173647000Y-152798000D02*
X162897000Y-152798000D01*
X173997000Y-137458000D02*
X176337000Y-137458000D01*
X176097000Y-141248000D02*
X176097000Y-149248000D01*
X176097000Y-149248000D02*
X173647000Y-152798000D01*
X176337000Y-137458000D02*
X176337000Y-139798000D01*
%TO.C,U2*%
X158082000Y-119711000D02*
X158317000Y-119711000D01*
X158082000Y-123571000D02*
X158082000Y-119711000D01*
X158082000Y-123571000D02*
X158082000Y-127431000D01*
X158082000Y-127431000D02*
X158317000Y-127431000D01*
X171102000Y-119711000D02*
X170867000Y-119711000D01*
X171102000Y-123571000D02*
X171102000Y-119711000D01*
X171102000Y-123571000D02*
X171102000Y-127431000D01*
X171102000Y-127431000D02*
X170867000Y-127431000D01*
X158317000Y-128283500D02*
X157847000Y-128623500D01*
X157847000Y-127943500D01*
X158317000Y-128283500D01*
G36*
X158317000Y-128283500D02*
G01*
X157847000Y-128623500D01*
X157847000Y-127943500D01*
X158317000Y-128283500D01*
G37*
%TO.C,R3*%
X134056095Y-147332359D02*
G75*
G02*
X134153133Y-145883000I-320095J749359D01*
G01*
%TD*%
M02*
